<?xml version="1.0" encoding="UTF-8" standalone="no"?>
<!-- Created with Inkscape (http://www.inkscape.org/) -->

<svg
   xmlns:dc="http://purl.org/dc/elements/1.1/"
   xmlns:cc="http://creativecommons.org/ns#"
   xmlns:rdf="http://www.w3.org/1999/02/22-rdf-syntax-ns#"
   xmlns:svg="http://www.w3.org/2000/svg"
   xmlns="http://www.w3.org/2000/svg"
   xmlns:sodipodi="http://sodipodi.sourceforge.net/DTD/sodipodi-0.dtd"
   xmlns:inkscape="http://www.inkscape.org/namespaces/inkscape"
   width="31cm"
   height="5cm"
   viewBox="0 0 310 49.999994"
   version="1.1"
   id="svg8"
   inkscape:version="0.92.4 (5da689c313, 2019-01-14)"
   sodipodi:docname="logo-loves-clothing.svg"
   inkscape:export-filename="C:\Users\matt\Documents\GitHub\mrlacey-RXT\Assets\logo-loves-clothing.png"
   inkscape:export-xdpi="96"
   inkscape:export-ydpi="96">
  <defs
     id="defs2">
    <pattern
       y="0"
       x="0"
       height="6"
       width="6"
       patternUnits="userSpaceOnUse"
       id="EMFhbasepattern" />
  </defs>
  <sodipodi:namedview
     id="base"
     pagecolor="#ffffff"
     bordercolor="#666666"
     borderopacity="1.0"
     inkscape:pageopacity="0.0"
     inkscape:pageshadow="2"
     inkscape:zoom="1.2312497"
     inkscape:cx="644.59685"
     inkscape:cy="-77.465495"
     inkscape:document-units="mm"
     inkscape:current-layer="layer1"
     showgrid="false"
     units="cm"
     inkscape:window-width="3240"
     inkscape:window-height="2035"
     inkscape:window-x="-13"
     inkscape:window-y="-13"
     inkscape:window-maximized="1"
     inkscape:snap-bbox="true"
     inkscape:bbox-nodes="true"
     inkscape:snap-bbox-midpoints="true"
     showguides="false"
     inkscape:snap-page="false" />
  <metadata
     id="metadata5">
    <rdf:RDF>
      <cc:Work
         rdf:about="">
        <dc:format>image/svg+xml</dc:format>
        <dc:type
           rdf:resource="http://purl.org/dc/dcmitype/StillImage" />
        <dc:title></dc:title>
      </cc:Work>
    </rdf:RDF>
  </metadata>
  <g
     inkscape:label="Layer 1"
     inkscape:groupmode="layer"
     id="layer1"
     transform="translate(0,-247.00003)"
     style="display:inline"
     sodipodi:insensitive="true">
    <g
       id="g829"
       transform="matrix(0.43004561,0,0,0.43004561,4.0755249,165.95507)">
      <path
         id="path852"
         style="fill:#ffffff;fill-opacity:1;stroke:none;stroke-width:0.1"
         d="m 238.04526,220.08884 34.82992,29.30053 -34.82992,29.35221 -8.00984,-8.16487 25.57983,-21.08399 -25.57983,-21.23901 z m -44.53474,71.39099 H 181.2632 l 36.07015,-84.12924 h 12.29899 z m -18.28313,-12.73825 -34.82991,-29.35221 34.82991,-29.30053 8.06153,8.16487 -25.63151,21.03231 25.63151,21.29069 z"
         inkscape:connector-curvature="0" />
      <g
         transform="translate(-68.980655,119.48066)"
         id="g888">
        <path
           id="path823-6"
           style="fill:none;stroke:#ffffff;stroke-width:8;stroke-linecap:round;stroke-linejoin:miter;stroke-miterlimit:4;stroke-dasharray:none;stroke-opacity:1"
           d="m 192.76786,148.07741 c -101.48661,0 -102.05357,0 -102.05357,0 m 90.14732,-18.14286 c -101.486609,0 -102.053569,0 -102.053569,0 M 193.14583,111.79169 c -101.486605,0 -102.05357,0 -102.05357,0"
           inkscape:connector-curvature="0" />
      </g>
    </g>
    <g
       transform="matrix(0.11400117,0,0,0.11400117,142.25273,250.22806)"
       id="svgg-8"
       style="fill:#ffffff">
      <path
         id="path0-6"
         d="m 388.34317,43.044193 c -3.159,0.511 -5.919,2.16 -7.734,4.622 -0.913,1.237 -84.798,146.150997 -85.236,147.247997 -1.217,3.042 -1.054,6.725 0.423,9.587 0.712,1.381 84.301,145.607 84.754,146.237 1.719,2.391 4.671,4.169 7.695,4.637 0.552,0.085 21.725,0.105 86.035,0.082 l 85.303,-0.03 0.732,-0.21 c 2.917,-0.835 5.064,-2.262 6.66,-4.426 0.913,-1.238 84.798,-146.152 85.236,-147.249 1.075,-2.686 1.079,-5.894 0.012,-8.611 -0.251,-0.64 -2.111,-3.943 -5.992,-10.644 -59.533,-102.776997 -78.848,-136.084997 -79.196,-136.567997 -1.635,-2.273 -4.296,-3.952 -7.2,-4.544 -0.894,-0.182 -170.376,-0.311 -171.492,-0.131 m 168.359,6.217 c -29.82586,51.709007 -52.57968,91.103177 -84.733,146.792997 -29.989,0.0171 -59.978,0.033 -89.967,0.049 24.04025,-41.77435 48.30713,-83.41892 72.287,-125.227997 0.444,-0.851 0.14,-1.964 -0.696,-2.551 l -0.423,-0.297 h -47.493 l -0.642,0.304 c -0.372,0.176 -0.839,0.505 -1.111,0.781 -0.419,0.426 -72.975,125.796997 -73.494,126.990997 v 0 c -9.46922,-0.14416 -19.08455,0.23925 -28.486,-0.124 0.16,-0.419 83.561,-144.263997 83.895,-144.697997 0.754,-0.98 2.146,-1.755 3.513,-1.955 0.476,-0.069 167.35,-0.135 167.35,-0.065 m 89.617,148.018997 c 0.499,1.236 0.498,2.664 -0.004,3.907 -0.433,1.071 -83.988,145.199 -84.106,145.077 -0.397,-0.411 -84.813,-146.885 -84.74,-147.036 0.225,-0.463 84.855,-146.971997 84.897,-146.969997 m -0.956,50.107997 c -24.041,42.94 0,0 -24.041,42.94 l 30.041,53.737 c -8.78977,18.84195 -15.39484,26.94977 -29.593,52.85 -0.204,0.603 -0.207,1.872 -0.004,2.468 0.178,0.526 23.091,40.698 23.411,41.046 0.73,0.795 2.129,0.795 2.861,0 0.344,-0.374 53.214,-91.83 53.703,-92.897 0.875,-1.911 0.88,-4.458 0.013,-6.354 -0.385,-0.841 -53.778,-93.05 -54.054,-93.351 -0.581,-0.634 -1.57,-0.819 -2.337,-0.439 m -157.448,226.864 c 0.272,0.308 0.657,0.585 1.154,0.83 l 0.746,0.369 c 15.85633,0 31.71267,0 47.569,0 l 0.317,-0.226 c 0.625,-0.446 0.849,-0.856 0.884,-1.62 l 0.032,-0.693 c -24.17733,-41.82933 -48.35467,-83.65867 -72.532,-125.488 89.665,0.073 0,0 89.665,0.073 0.114,0.124 84.71,146.641 84.71,146.714 0,0.118 -167.356,-0.021 -167.771,-0.14 -1.162,-0.333 -2.265,-1.054 -2.918,-1.906 -0.314,-0.41 -83.717,-144.266 -83.874,-144.668 10.15847,-0.21767 15.94592,-0.122 28.543,-0.122"
         inkscape:connector-curvature="0"
         style="fill:#ffffff;fill-rule:evenodd;stroke:none"
         sodipodi:nodetypes="ccccccccccccccccccccccccccccccccccccccccccccccccccccccccscccc" />
    </g>
    <g
       transform="matrix(0.15974905,0,0,0.15974905,211.68414,240.91634)"
       id="svgg-7-1"
       style="fill:#ffffff">
      <path
         id="path0-5-4"
         d="m 140.57793,90.485 c -6.44,2.295 -8.356,5.115 -35.669,52.515 -33.227997,57.663 -32.213997,55.328 -28.023997,64.552 4.639,10.213 54.527997,95.25 57.566997,98.125 5.513,5.215 6.714,5.312 65.548,5.312 58.832,0 60.028,-0.097 65.557,-5.312 3.096,-2.921 51.347,-85.095 57.059,-97.177 4.819,-10.192 6.093,-7.156 -27.49,-65.5 -26.945,-46.811 -29.855,-50.998 -36.782,-52.921 -6.272,-1.742 -112.769,-1.374 -117.766,0.406 M 200.03393,198 c 11.68107,-19.03462 19.71909,-34.05178 31.428,-55 l 22.062,1.038 -29.524,55.894 c 29.90857,56.70574 0.38557,0.67474 29.90857,56.70574 C 231.46193,257 239.94025,257 231.46193,257 l -31.466,-55 c -11.73741,19.02059 -19.77281,34.05695 -31.496,55.015 l -11,-0.258 c -13.78,-0.322 -14.127,2.328 3.884,-29.653 8.039,-14.273 14.616,-26.435 14.616,-27.026 l -29.517,-56.051 c 22.017,-0.991 13.57597,-1.00521 22.017,-0.991"
         inkscape:connector-curvature="0"
         style="fill:#ffffff;fill-rule:evenodd;stroke:none"
         sodipodi:nodetypes="ccccscccccccccccccccccc" />
    </g>
    <path
       id="path866-7"
       style="fill:#ffffff;fill-opacity:1;fill-rule:evenodd;stroke:none;stroke-width:0.08927888"
       d="m 277.14745,264.5447 c -1.75134,1.65546 -3.68903,3.49454 -5.17813,5.17814 -0.88153,1.06727 -1.3979,2.4774 -1.40698,3.74959 -0.013,0.83365 0.10818,1.53367 0.40707,2.15693 1.13462,1.94801 3.12856,3.6972 4.68922,4.96564 0.59379,0.42121 1.06936,0.91562 1.68883,1.24798 0.31452,0.15298 0.65843,0.31896 0.93563,0.42845 0.2138,0.087 0.45298,0.14592 0.65709,0.20711 0.11879,0.0431 0.29241,0.0567 0.41622,0.10518 -0.0189,-0.0852 -0.002,-0.13377 -0.16624,-0.38374 -0.39282,-0.60709 -0.71423,-1.40702 -0.86421,-2.13554 -0.0857,-0.40711 -0.0389,-0.32909 -0.0817,-0.47461 -0.0909,-0.0354 -0.32156,-0.14214 -0.40396,-0.18962 -0.22532,-0.1122 -0.41703,-0.28093 -0.59994,-0.42853 -1.79139,-1.71146 -3.08367,-2.77864 -4.14254,-4.33537 -0.30833,-0.61964 -0.33263,-1.30945 -0.17853,-1.82841 0.2042,-0.75117 0.5668,-1.20469 0.98559,-1.68556 1.79797,-1.857 3.77316,-3.8812 5.47812,-5.34955 1.0973,-0.78207 2.21982,-1.38828 3.62109,-0.50703 1.34829,0.80875 2.46575,2.02389 3.54608,3.06956 1.65693,1.56439 2.77526,2.65677 4.52472,4.36561 l 1.58579,-1.59313 c -2.5366,-2.31128 -4.84254,-5.4377 -7.3924,-7.15615 -3.01824,-2.01262 -6.15008,-1.44854 -8.1208,0.59305 z m 21.12682,0.77113 c 0.0547,-0.008 3.6659,2.95214 4.97104,4.59274 1.24704,1.57586 0.67644,3.14669 -0.62131,4.44244 -2.71715,2.68276 -3.41556,3.36035 -5.0282,4.90668 -1.52877,1.20928 -2.59687,1.89463 -4.43532,0.28578 -1.36586,-1.1376 -2.08307,-1.88398 -3.02117,-2.64264 -1.6213,-1.66093 -1.35235,-1.41218 -1.6213,-1.66093 -0.99102,-0.91983 -1.77157,-1.72122 -2.76402,-2.68157 -1.6072,1.63557 0,0 -1.60703,1.63558 2.42281,2.45039 5.0881,4.92648 7.09229,6.87082 1.08288,0.97078 2.67372,2.0677 4.23534,1.57834 0.0715,-0.0285 0.18571,-0.0572 0.25713,-0.0572 0.17141,0 0.74279,-0.14285 1.08563,-0.27141 0.24283,-0.0928 0.88564,-0.40711 1.09276,-0.53567 0.10713,-0.0714 0.22141,-0.11428 0.29284,-0.11428 0.59229,-0.30927 1.25888,-0.84087 1.72128,-1.28559 1.8879,-1.86827 3.46488,-3.47762 5.30667,-5.51379 1.86481,-2.73864 0.96442,-4.94548 -0.32138,-6.66369 -2.32897,-2.45796 -4.4428,-4.77193 -7.56363,-5.59233 -0.15697,-0.0275 -0.32154,-0.0788 -0.32154,-0.0146 m -12.55597,-6.61359 c -0.0285,0.0428 -0.0714,0.0715 -0.0928,0.0715 -1.64298,1.55293 -3.08905,3.05851 -4.69238,4.82809 -0.66376,0.78692 -1.12705,1.74045 -1.35653,2.70454 0.98247,-0.60785 2.02898,-0.88546 3.10241,-0.89064 0.2898,-0.55746 0.67629,-1.24603 1.1611,-1.69251 1.05038,-1.08362 1.99154,-1.99494 2.89259,-2.84262 1.19439,-1.28683 2.98006,-0.84489 3.99957,0.0572 1.78133,2.08725 4.04577,3.8267 5.64954,5.77093 2.50244,2.64718 -0.56909,5.32278 -2.47119,7.12043 l -1.58579,1.59314 c -0.98542,0.97295 -1.45723,1.46373 -2.55685,2.53897 l 1.6213,1.66093 c 2.05024,-1.9535 4.43643,-4.38804 6.45666,-6.58537 0.93794,-1.24595 2.33838,-3.21856 1.6783,-4.99961 -0.47486,-1.04425 -0.87003,-1.88383 -1.24992,-2.72121 -1.75112,-2.09531 -3.92535,-4.24574 -5.6495,-5.88518 -2.32529,-2.14118 -5.57599,-1.82719 -6.90647,-0.72845 z m -4.72818,19.56991 c -0.33441,0.41891 -0.60553,0.9055 -0.87124,1.32841 -1.06581,1.76671 -0.63709,3.79999 0.32149,5.32099 0.1046,0.1651 0.13431,0.20409 0.16595,0.38341 2.06127,2.05515 4.03605,4.68042 6.06201,6.38028 5.40983,4.80799 10.99143,-3.46486 12.82721,-7.20657 0,-0.12856 -0.11427,-0.12142 -0.33569,0.0214 -0.20712,0.12856 -0.84992,0.44282 -1.09276,0.53567 -0.34283,0.12857 -0.9142,0.27141 -1.09277,0.27141 -0.16427,0 -0.44996,0.12142 -0.44996,0.19284 -0.0535,0.0914 -0.0955,0.18313 -0.14283,0.2714 -1.29068,1.62789 -2.67692,3.06662 -3.97117,4.26391 -1.67489,1.48873 -3.4434,0.73933 -4.70664,-0.57125 -1.79295,-1.68603 -3.518,-3.61326 -5.10674,-5.37095 -0.4557,-0.69031 -0.81244,-1.32016 -0.81417,-2.00696 0.0675,-0.95397 0.58326,-1.69509 1.08554,-2.39982 0.73085,-1.03927 1.82179,-1.88807 2.52836,-2.77121 l 1.6072,-1.63557 c 0.14284,-0.0428 2.47451,-2.58005 2.45308,-2.65862 l -1.65693,-1.5644 z"
       inkscape:connector-curvature="0"
       sodipodi:nodetypes="cccccccccccccccccccccccccccccccccccsccccccccccccccccccccccccccccccccccsccccccccccccc" />
    <path
       inkscape:connector-curvature="0"
       d="m 148.62875,290.53786 -0.71541,-0.59617 c -15.38119,-12.5196 -19.55442,-16.93127 -19.55442,-24.08532 0,-5.96171 4.76939,-10.73108 10.73108,-10.73108 4.88864,0 7.63102,2.74239 9.53875,4.88861 1.90773,-2.14622 4.65015,-4.88861 9.53875,-4.88861 5.96169,0 10.73108,4.76937 10.73108,10.73108 0,7.15405 -4.17319,11.56572 -19.55443,24.08532 z M 139.09,257.50997 c -4.65011,0 -8.34639,3.69626 -8.34639,8.3464 0,6.08095 3.81551,10.13491 17.88514,21.5814 14.06962,-11.44649 17.88513,-15.50045 17.88513,-21.5814 0,-4.65014 -3.69627,-8.3464 -8.34638,-8.3464 -4.17319,0 -6.43864,2.50393 -8.22718,4.53091 l -1.31157,1.55004 -1.31157,-1.55004 c -1.78854,-2.02698 -4.05395,-4.53091 -8.22718,-4.53091 z"
       id="path2-9"
       style="display:inline;fill:#ffffff;stroke-width:1.19234216" />
  </g>
</svg>
